HIERARCHY
ROOT Hips
{
    OFFSET -0.1800 -22.3300 2.8200
    CHANNELS 6 Xposition Yposition Zposition Zrotation Yrotation Xrotation 
    JOINT LeftUpLeg
    {
        OFFSET -0.6800 6.9500 -9.1400
        CHANNELS 3 Zrotation Yrotation Xrotation
        JOINT LeftLeg
        {
            OFFSET -0.4500 3.4300 -37.5200
            CHANNELS 3 Zrotation Yrotation Xrotation
            JOINT LeftFoot
            {
                OFFSET -4.3700 -1.3600 -39.8000
                CHANNELS 3 Zrotation Yrotation Xrotation
                JOINT LeftToe
                {
                    OFFSET 11.9300 2.6400 -5.5800
                    CHANNELS 3 Zrotation Yrotation Xrotation
                    End Site
                    {
                        OFFSET 0.0000 0.0000 0.0000
                    }
                }
            }
        }
    }
    JOINT RightUpLeg
    {
        OFFSET -0.4300 -6.7700 -9.0500
        CHANNELS 3 Zrotation Yrotation Xrotation
        JOINT RightLeg
        {
            OFFSET -0.8900 -3.8300 -38.2600
            CHANNELS 3 Zrotation Yrotation Xrotation
            JOINT RightFoot
            {
                OFFSET -4.2300 1.5800 -39.8400
                CHANNELS 3 Zrotation Yrotation Xrotation
                JOINT RightToe
                {
                    OFFSET 12.3300 -2.5400 -4.8100
                    CHANNELS 3 Zrotation Yrotation Xrotation
                    End Site
                    {
                        OFFSET 0.0000 0.0000 0.0000
                    }
                }
            }
        }
    }
    JOINT Spine
    {
        OFFSET -2.6700 -0.2500 10.9000
        CHANNELS 3 Zrotation Yrotation Xrotation
        JOINT Spine1
        {
            OFFSET 0.1100 0.5500 13.5200
            CHANNELS 3 Zrotation Yrotation Xrotation
            JOINT Spine2
            {
                OFFSET 2.5400 0.1500 5.2900
                CHANNELS 3 Zrotation Yrotation Xrotation
                JOINT Neck
                {
                    OFFSET -4.2900 -0.2800 21.3900
                    CHANNELS 3 Zrotation Yrotation Xrotation
                    JOINT Head
                    {
                        OFFSET 5.1300 0.5200 6.5000
                        CHANNELS 3 Zrotation Yrotation Xrotation
                        End Site
                        {
                            OFFSET 0.0000 0.0000 0.0000
                        }
                    }
                }
                JOINT LeftShoulder
                {
                    OFFSET -3.4100 7.8800 12.1700
                    CHANNELS 3 Zrotation Yrotation Xrotation
                    JOINT LeftArm
                    {
                        OFFSET -0.8900 9.1000 3.0500
                        CHANNELS 3 Zrotation Yrotation Xrotation
                        JOINT LeftForeArm
                        {
                            OFFSET -2.7500 25.9600 -1.2800
                            CHANNELS 3 Zrotation Yrotation Xrotation
                            JOINT LeftHand
                            {
                                OFFSET -1.4900 8.4000 -0.8200
                                CHANNELS 3 Zrotation Yrotation Xrotation
                                End Site
                                {
                                    OFFSET 0.0000 0.0000 0.0000
                                }
                            }
                        }
                    }
                }
                JOINT RightShoulder
                {
                    OFFSET -3.8600 -8.1800 11.8800
                    CHANNELS 3 Zrotation Yrotation Xrotation
                    JOINT RightArm
                    {
                        OFFSET -0.9100 -9.6000 3.2600
                        CHANNELS 3 Zrotation Yrotation Xrotation
                        JOINT RightForeArm
                        {
                            OFFSET -2.1400 -25.3700 -1.3300
                            CHANNELS 3 Zrotation Yrotation Xrotation
                            JOINT RightHand
                            {
                                OFFSET -1.0300 -8.4600 -0.6100
                                CHANNELS 3 Zrotation Yrotation Xrotation
                                End Site
                                {
                                    OFFSET 0.0000 0.0000 0.0000
                                }
                            }
                        }
                    }
                }
            }
        }
    }
}
MOTION
Frames: 10
Frame Time: 0.016667
-0.139800 -0.167425 0.924942 81.894506 -1.942447 -0.857871 4.419212 7.801686 2.217565 0.854044 26.059827 -5.787805 2.032955 -21.068377 -12.915558 37.489911 4.514285 -23.753215 -6.144527 -2.696163 2.579124 9.589928 19.148921 7.816127 -0.499017 -26.147198 -6.877002 -48.632625 12.349079 18.407606 0.048075 0.324925 4.268104 -3.376645 7.660557 3.121646 -0.526056 -5.150162 2.331690 1.027121 11.673384 -2.136365 7.888981 -9.195857 -4.298078 -4.169674 -4.431418 -31.130554 -6.263165 -7.092993 -49.385009 -4.083372 -23.531472 10.994649 -3.357521 -16.197208 -73.466438 13.665077 -7.028692 21.734367 14.479411 -5.343181 44.176945 29.330668 -24.452518 -22.590817 -4.147339 -4.309578 17.693729
-0.134916 -0.160613 0.924030 80.355174 -2.102153 0.517809 5.694546 -0.775564 1.975281 6.018555 40.573660 -6.467398 1.249451 -12.016251 -11.882047 36.341702 9.834595 -17.796313 -5.019043 -1.174086 0.358277 10.207466 17.470123 7.254171 0.246243 -27.313731 -6.049949 -41.234846 9.580029 19.567491 1.133301 0.242512 1.930754 -4.128664 6.179159 0.788792 0.262908 -4.884223 1.724129 -2.204581 10.763678 -3.179636 9.424580 -8.508947 -4.795396 -6.270893 -2.497229 -28.049718 -6.871168 -5.329227 -49.227229 -4.755799 -23.746547 11.227437 -2.579075 -12.926393 -77.806183 14.367923 -9.194237 22.262676 14.968978 -3.591385 45.947528 31.574296 -21.265217 -25.628570 -6.776735 5.354757 21.964533
-0.130141 -0.154762 0.924166 80.767322 -1.579796 1.624303 5.694546 -0.775564 1.975281 6.018555 40.573660 -6.467398 1.249451 -12.016251 -11.882047 36.341702 9.834595 -17.796313 -5.019043 -1.174086 0.358277 10.207466 17.470123 7.254171 0.246243 -27.313731 -6.049949 -41.234846 9.580029 19.567491 1.133301 0.242512 1.930754 -4.128664 6.179159 0.788792 0.262908 -4.884223 1.724129 -2.204581 10.763678 -3.179636 9.424580 -8.508947 -4.795396 -6.270893 -2.497229 -28.049718 -6.871168 -5.329227 -49.227229 -4.755799 -23.746547 11.227437 -2.579075 -12.926393 -77.806183 14.367923 -9.194237 22.262676 14.968978 -3.591385 45.947528 31.574296 -21.265217 -25.628570 -6.776735 5.354757 21.964533
-0.125335 -0.150153 0.925686 81.732413 -1.451824 2.714406 -0.534559 -11.949660 2.445060 10.625129 47.372428 -4.726701 3.672686 -25.173840 0.157710 31.817701 4.781881 -16.775836 -5.424609 0.579103 -0.586206 10.605366 13.869628 5.510340 -2.271787 -23.180308 -6.448224 -46.486010 -8.448348 8.808228 -0.346335 1.776289 -0.828559 -4.788522 7.164245 -1.013763 0.066954 -6.684095 1.145080 -5.856066 4.871306 -2.703414 4.248557 -7.407177 -0.260606 -4.331543 -3.750014 -29.113669 -7.834778 -5.289370 -46.431035 -3.290427 -24.242136 8.693497 -6.107599 -8.281248 -64.245871 15.629806 -9.743115 25.274784 20.241650 -2.655773 42.590551 27.757298 -21.469196 -22.354433 -5.260128 14.510076 13.229522
-0.120950 -0.141739 0.929826 82.346871 -2.597908 3.557490 -0.534559 -11.949660 2.445060 10.625129 47.372428 -4.726701 3.672686 -25.173840 0.157710 31.817701 4.781881 -16.775836 -5.424609 0.579103 -0.586206 10.605366 13.869628 5.510340 -2.271787 -23.180308 -6.448224 -46.486010 -8.448348 8.808228 -0.346335 1.776289 -0.828559 -4.788522 7.164245 -1.013763 0.066954 -6.684095 1.145080 -5.856066 4.871306 -2.703414 4.248557 -7.407177 -0.260606 -4.331543 -3.750014 -29.113669 -7.834778 -5.289370 -46.431035 -3.290427 -24.242136 8.693497 -6.107599 -8.281248 -64.245871 15.629806 -9.743115 25.274784 20.241650 -2.655773 42.590551 27.757298 -21.469196 -22.354433 -5.260128 14.510076 13.229522
-0.116862 -0.131840 0.934049 82.614398 -3.240837 4.301183 -3.505270 -17.676797 3.411192 5.005741 39.647706 -5.297949 3.374818 -29.768913 5.667475 5.294573 -7.033343 -12.242573 -5.182081 8.172536 -1.404103 13.116169 6.587058 3.690150 -5.202692 -28.509030 -7.029308 -45.990728 -13.415904 1.107014 -1.194704 4.439559 -2.066918 -4.636388 8.162321 -3.088262 0.610212 -7.025742 0.443993 -8.314316 1.306375 -2.176934 0.001236 -8.137329 1.847465 -6.145497 -5.347856 -31.939435 -11.151729 -4.702471 -43.360922 -4.952029 -26.398382 7.896517 -8.584944 -5.822336 -52.525264 18.547837 -10.405199 28.259154 23.948825 -1.813040 37.244970 21.511510 -24.454478 -18.251794 -2.919055 12.967591 11.367849
-0.113210 -0.123384 0.935652 80.754773 -2.980365 5.498770 -3.505270 -17.676797 3.411192 5.005741 39.647706 -5.297949 3.374818 -29.768913 5.667475 5.294573 -7.033343 -12.242573 -5.182081 8.172536 -1.404103 13.116169 6.587058 3.690150 -5.202692 -28.509030 -7.029308 -45.990728 -13.415904 1.107014 -1.194704 4.439559 -2.066918 -4.636388 8.162321 -3.088262 0.610212 -7.025742 0.443993 -8.314316 1.306375 -2.176934 0.001236 -8.137329 1.847465 -6.145497 -5.347856 -31.939435 -11.151729 -4.702471 -43.360922 -4.952029 -26.398382 7.896517 -8.584944 -5.822336 -52.525264 18.547837 -10.405199 28.259154 23.948825 -1.813040 37.244970 21.511510 -24.454478 -18.251794 -2.919055 12.967591 11.367849
-0.110608 -0.115390 0.934817 79.039560 -2.877372 6.683012 -4.275605 -23.551907 5.350658 0.327374 33.579969 -8.683569 0.786539 -23.332562 4.930378 -11.092331 1.529714 -6.585211 -6.099950 9.225291 -3.403155 12.356017 5.764977 0.653618 -5.526913 -25.000587 -2.902876 -31.798807 -15.521515 -0.028390 0.750548 6.722799 -3.418100 -3.171481 6.329884 -4.406100 1.507961 -4.863752 -0.590864 -8.454041 -3.383736 -2.189870 -2.397245 -10.984732 3.321899 -9.893152 -6.480184 -30.938601 -13.707884 -2.680760 -42.327750 -11.460462 -17.759718 9.067101 -9.274675 -7.061046 -37.006503 22.319666 -9.686468 26.300206 23.473070 -4.185011 33.893629 15.141762 -18.921906 -14.222150 -0.022369 4.011883 11.813329
-0.108076 -0.105434 0.933772 77.337259 -2.918612 7.673722 -4.275605 -23.551907 5.350658 0.327374 33.579969 -8.683569 0.786539 -23.332562 4.930378 -11.092331 1.529714 -6.585211 -6.099950 9.225291 -3.403155 12.356017 5.764977 0.653618 -5.526913 -25.000587 -2.902876 -31.798807 -15.521515 -0.028390 0.750548 6.722799 -3.418100 -3.171481 6.329884 -4.406100 1.507961 -4.863752 -0.590864 -8.454041 -3.383736 -2.189870 -2.397245 -10.984732 3.321899 -9.893152 -6.480184 -30.938601 -13.707884 -2.680760 -42.327750 -11.460462 -17.759718 9.067101 -9.274675 -7.061046 -37.006503 22.319666 -9.686468 26.300206 23.473070 -4.185011 33.893629 15.141762 -18.921906 -14.222150 -0.022369 4.011883 11.813329
-0.105591 -0.093550 0.935032 75.120427 -2.659250 8.517368 -4.492408 -27.476185 7.288664 -0.503522 30.259945 -9.180158 -2.713749 -21.187058 6.251746 -6.721313 -0.381058 -4.453670 -6.992175 12.372178 -5.680761 16.259642 2.722630 -1.402573 -4.697722 -30.545634 -3.675871 -31.531313 -14.112923 -5.689275 2.149218 8.580274 -4.162732 -2.306341 6.646993 -5.772761 1.646730 -4.508215 -0.792667 -9.756304 -6.480971 -2.656024 -4.683675 -12.822681 4.559566 -11.204328 -6.892623 -30.133379 -14.345521 -4.333114 -39.844579 -13.811983 -15.551549 9.327342 -9.485161 -6.015966 -38.400128 24.878201 -8.432618 26.153600 24.156421 -6.756168 30.986089 12.015983 -17.765275 -13.961503 0.580158 6.987877 14.515559
